<!--?xml version="1.0" standalone="no"?-->

<svg version="1.0" xmlns="http://www.w3.org/2000/svg" width="300.000000pt" height="300.000000pt" viewBox="0 0 300.000000 300.000000" preserveAspectRatio="xMidYMid meet">
<g transform="translate(0.000000,300.000000) scale(0.100000,-0.100000)" fill="#0A0A0A" stroke="none">
<path d="M1295 2924 c-63 -10 -218 -47 -273 -66 -393 -136 -747 -493 -883
-888 -55 -162 -63 -222 -63 -470 -1 -213 2 -244 23 -330 41 -166 108 -322 192
-447 186 -276 451 -485 737 -583 162 -55 224 -64 467 -65 208 0 240 2 330 24
167 39 324 106 452 192 177 120 312 255 432 432 86 128 153 285 192 452 22 90
24 122 24 330 -1 243 -10 305 -65 467 -136 397 -491 752 -888 888 -150 51
-229 63 -442 66 -113 1 -218 0 -235 -2z m323 -154 c134 -15 193 -27 296 -61
301 -101 560 -324 719 -619 108 -200 161 -471 137 -700 -15 -146 -25 -194 -61
-304 -122 -363 -432 -673 -795 -795 -110 -36 -158 -46 -304 -61 -229 -24 -500
29 -700 137 -294 159 -519 419 -619 719 -36 110 -46 158 -61 304 -24 229 29
500 137 700 129 239 318 425 557 550 122 63 265 107 406 124 147 18 170 18
288 6z" id="node1" class="node"></path>
<path d="M805 2178 c-31 -59 -36 -73 -24 -80 8 -5 79 -47 159 -94 80 -47 147
-87 149 -89 2 -2 -16 -16 -40 -30 -189 -111 -265 -158 -272 -165 -8 -7 18 -63
58 -124 l16 -24 42 23 c23 12 98 55 167 95 69 40 153 89 188 108 l62 36 0 70
c0 39 -4 76 -8 82 -6 9 -445 264 -454 264 -2 0 -21 -32 -43 -72z" id="node2" class="node"></path>
<path d="M1970 2149 c-91 -55 -172 -103 -180 -106 -8 -4 -36 -20 -62 -36 l-48
-29 0 -71 0 -72 97 -55 c53 -30 122 -69 152 -86 31 -17 92 -52 136 -78 l80
-46 17 23 c10 12 29 44 44 71 22 39 24 50 13 57 -8 5 -78 48 -156 95 -79 47
-145 89 -147 93 -3 4 67 50 154 101 88 51 160 96 160 100 0 12 -77 134 -86
136 -5 1 -83 -43 -174 -97z" id="node3" class="node"></path>
<path d="M614 1365 c-10 -26 25 -219 55 -297 36 -98 66 -148 142 -242 109
-137 294 -259 454 -302 81 -21 303 -30 391 -15 211 37 400 151 538 323 77 96
108 152 145 260 28 81 57 260 46 279 -4 5 -342 9 -886 9 -760 0 -880 -2 -885
-15z m1588 -151 c15 -14 -40 -147 -97 -234 -142 -218 -438 -357 -682 -322
-254 36 -468 185 -573 398 -34 70 -61 150 -52 158 7 8 1397 8 1404 0z" id="node4" class="node"></path>
</g>
<g transform="translate(0.000000,300.000000) scale(0.100000,-0.100000)" fill="#A0A0A0" stroke="none">



</g>
</svg>