<?xml version="1.0" encoding="iso-8859-1"?><!DOCTYPE svg PUBLIC "-//W3C//DTD SVG 1.1//EN" "http://www.w3.org/Graphics/SVG/1.1/DTD/svg11.dtd"><svg version="1.1" id="Calque_1" xmlns="http://www.w3.org/2000/svg" xmlns:xlink="http://www.w3.org/1999/xlink" x="0px" y="0px" width="6px" height="10px" viewBox="0 0 6 10" style="enable-background:new 0 0 6 10;" xml:space="preserve">
<g><path style="fill:#EDEDED;" d="M0.359,4.105h5.024c0.1,0,0.182-0.046,0.253-0.135s0.106-0.199,0.106-0.322 c0-0.122-0.035-0.229-0.106-0.319L3.123,0.135C3.053,0.046,2.969,0,2.871,0S2.689,0.046,2.619,0.135L0.106,3.329 C0.036,3.419,0,3.526,0,3.648C0,3.771,0.036,3.881,0.106,3.97C0.177,4.06,0.261,4.105,0.359,4.105L0.359,4.105z M0.359,4.105"/><path style="fill:#EDEDED;" d="M5.383,5.93H0.359c-0.098,0-0.182,0.045-0.252,0.135C0.036,6.157,0,6.265,0,6.387 s0.036,0.23,0.106,0.32l2.513,3.194c0.07,0.091,0.154,0.136,0.252,0.136s0.182-0.045,0.252-0.136l2.513-3.194 c0.071-0.09,0.106-0.198,0.106-0.32S5.707,6.157,5.636,6.065C5.564,5.976,5.482,5.93,5.383,5.93L5.383,5.93z M5.383,5.93"/></g></svg>